<?xml version="1.0" standalone="no"?>
<!DOCTYPE svg PUBLIC "-//W3C//DTD SVG 20010904//EN"
 "http://www.w3.org/TR/2001/REC-SVG-20010904/DTD/svg10.dtd">
<svg version="1.0" xmlns="http://www.w3.org/2000/svg"
 width="512.000000pt" height="512.000000pt" viewBox="0 0 512.000000 512.000000"
 preserveAspectRatio="xMidYMid meet">
<metadata>
Created by potrace 1.14, written by Peter Selinger 2001-2017
</metadata>
<g transform="translate(0.000000,512.000000) scale(0.100000,-0.100000)"
fill="#000000" stroke="none">
<path d="M235 5107 c-233 -68 -311 -359 -142 -529 45 -46 113 -84 162 -92 17
-2 110 -5 208 -5 l177 -1 0 -2240 0 -2240 1920 0 1920 0 0 1027 0 1028 295
295 c323 324 332 336 342 461 11 131 -60 249 -185 307 -46 22 -72 27 -132 27
-97 0 -163 -30 -251 -113 l-64 -61 -5 957 c-5 956 -5 957 -27 1004 -27 60
-101 134 -161 161 l-47 22 -1985 2 c-1480 1 -1995 -2 -2025 -10z"/>
</g>
</svg>
